<svg xmlns="http://www.w3.org/2000/svg" xmlns:xlink="http://www.w3.org/1999/xlink" width="1080" zoomAndPan="magnify" viewBox="0 0 810 809.999993" height="1080" preserveAspectRatio="xMidYMid meet" version="1.0"><defs><clipPath id="806830be49"><path d="M 243 284.308594 L 567 284.308594 L 567 525 L 243 525 Z M 243 284.308594 " clip-rule="nonzero"/></clipPath></defs><g clip-path="url(#806830be49)"><path fill="#ffffff" d="M 562.695312 474.054688 C 561.703125 472.21875 560.550781 470.488281 559.238281 468.863281 C 557.929688 467.242188 556.480469 465.75 554.898438 464.390625 C 553.3125 463.03125 551.617188 461.832031 549.8125 460.785156 C 548.007812 459.738281 546.121094 458.863281 544.15625 458.164062 C 541.121094 459.070312 538.042969 459.796875 534.925781 460.34375 C 528.007812 461.675781 521.480469 462.9375 515.28125 469.058594 C 509.070312 475.191406 506.925781 480.863281 504.660156 486.867188 C 503.261719 490.5625 501.820312 494.382812 499.390625 498.195312 C 499.738281 500.09375 500.289062 501.925781 501.050781 503.699219 C 501.65625 505.15625 502.359375 506.570312 503.164062 507.929688 C 503.96875 509.292969 504.859375 510.59375 505.84375 511.832031 C 506.828125 513.066406 507.894531 514.230469 509.039062 515.320312 C 510.183594 516.410156 511.398438 517.417969 512.683594 518.339844 C 513.96875 519.257812 515.3125 520.085938 516.714844 520.820312 C 518.113281 521.554688 519.558594 522.1875 521.046875 522.722656 C 522.535156 523.253906 524.054688 523.683594 525.601562 524.003906 C 527.148438 524.328125 528.710938 524.542969 530.289062 524.644531 C 531.867188 524.75 533.445312 524.746094 535.023438 524.632812 C 536.597656 524.519531 538.160156 524.292969 539.707031 523.964844 C 541.253906 523.632812 542.769531 523.195312 544.253906 522.652344 C 545.738281 522.109375 547.179688 521.46875 548.574219 520.726562 C 549.972656 519.984375 551.308594 519.148438 552.589844 518.21875 C 553.867188 517.292969 555.078125 516.277344 556.21875 515.183594 C 557.355469 514.085938 558.414062 512.914062 559.390625 511.671875 C 560.367188 510.429688 561.253906 509.121094 562.046875 507.753906 C 562.441406 507.089844 562.816406 506.410156 563.164062 505.714844 C 565.140625 501.800781 566.3125 497.660156 566.679688 493.289062 C 566.761719 492.324219 566.828125 491.355469 566.828125 490.371094 C 566.832031 487.523438 566.484375 484.714844 565.785156 481.953125 C 565.085938 479.191406 564.054688 476.558594 562.695312 474.054688 Z M 550.78125 495.175781 C 550.570312 495.929688 550.3125 496.664062 550.007812 497.382812 C 549.703125 498.101562 549.355469 498.800781 548.964844 499.476562 C 548.574219 500.152344 548.140625 500.800781 547.667969 501.421875 C 547.195312 502.042969 546.6875 502.632812 546.140625 503.1875 C 545.59375 503.746094 545.015625 504.265625 544.402344 504.75 C 543.789062 505.234375 543.148438 505.679688 542.480469 506.085938 C 541.8125 506.488281 541.121094 506.847656 540.410156 507.167969 C 539.695312 507.484375 538.964844 507.753906 538.21875 507.980469 C 537.472656 508.207031 536.710938 508.382812 535.941406 508.515625 C 535.171875 508.644531 534.398438 508.726562 533.617188 508.757812 C 532.839844 508.792969 532.058594 508.777344 531.28125 508.710938 C 530.503906 508.644531 529.730469 508.53125 528.96875 508.371094 C 528.203125 508.207031 527.453125 508 526.714844 507.742188 C 525.980469 507.488281 525.261719 507.1875 524.5625 506.839844 C 523.863281 506.492188 523.1875 506.105469 522.535156 505.671875 C 521.882812 505.242188 521.261719 504.773438 520.671875 504.261719 C 520.078125 503.753906 519.523438 503.210938 519 502.628906 C 518.476562 502.050781 517.992188 501.441406 517.542969 500.800781 C 517.097656 500.160156 516.691406 499.496094 516.328125 498.804688 C 515.964844 498.113281 515.648438 497.402344 515.375 496.671875 C 515.097656 495.941406 514.871094 495.195312 514.691406 494.433594 C 514.511719 493.675781 514.378906 492.90625 514.296875 492.132812 C 514.210938 491.355469 514.179688 490.578125 514.191406 489.796875 C 514.207031 489.015625 514.269531 488.238281 514.378906 487.464844 C 514.492188 486.695312 514.652344 485.929688 514.859375 485.179688 C 515.066406 484.425781 515.320312 483.6875 515.621094 482.96875 C 515.917969 482.246094 516.265625 481.546875 516.652344 480.871094 C 517.039062 480.191406 517.46875 479.542969 517.9375 478.917969 C 518.40625 478.296875 518.914062 477.703125 519.457031 477.144531 C 520 476.582031 520.578125 476.058594 521.1875 475.570312 C 521.796875 475.085938 522.4375 474.636719 523.101562 474.230469 C 523.765625 473.820312 524.457031 473.457031 525.167969 473.136719 C 525.878906 472.816406 526.609375 472.539062 527.355469 472.3125 C 528.101562 472.082031 528.859375 471.898438 529.628906 471.765625 C 530.398438 471.632812 531.171875 471.546875 531.949219 471.507812 C 532.730469 471.472656 533.511719 471.484375 534.289062 471.546875 C 535.066406 471.605469 535.839844 471.714844 536.601562 471.875 C 537.367188 472.03125 538.117188 472.234375 538.859375 472.488281 C 539.597656 472.742188 540.316406 473.039062 541.019531 473.382812 C 541.71875 473.722656 542.398438 474.109375 543.050781 474.535156 C 543.703125 474.964844 544.328125 475.433594 544.921875 475.9375 C 545.515625 476.445312 546.074219 476.984375 546.601562 477.5625 C 547.128906 478.136719 547.617188 478.746094 548.066406 479.382812 C 548.515625 480.023438 548.925781 480.683594 549.292969 481.375 C 549.65625 482.0625 549.980469 482.773438 550.257812 483.503906 C 550.535156 484.234375 550.765625 484.976562 550.949219 485.734375 C 551.132812 486.492188 551.269531 487.261719 551.359375 488.035156 C 551.445312 488.8125 551.484375 489.589844 551.472656 490.371094 C 551.453125 492.003906 551.21875 493.605469 550.78125 495.175781 Z M 517.472656 463.847656 C 519.382812 462.515625 521.425781 461.429688 523.601562 460.589844 C 524.289062 460.320312 524.976562 460.078125 525.667969 459.855469 C 528.429688 459.023438 531.234375 458.359375 534.074219 457.863281 C 534.785156 457.726562 535.496094 457.589844 536.207031 457.449219 C 537.210938 457.253906 538.214844 457.039062 539.226562 456.804688 C 539.652344 456.707031 540.082031 456.613281 540.511719 456.507812 C 542.75 455.964844 544.933594 455.246094 547.054688 454.347656 C 548.441406 453.757812 549.777344 453.074219 551.070312 452.300781 C 551.621094 451.964844 552.117188 451.640625 552.558594 451.328125 C 553.726562 450.558594 554.765625 449.640625 555.667969 448.578125 C 552.824219 446.460938 549.75 444.757812 546.449219 443.460938 C 546.175781 443.351562 545.90625 443.234375 545.632812 443.128906 C 544.15625 442.5625 542.65625 442.078125 541.132812 441.675781 C 540.839844 441.597656 540.542969 441.53125 540.246094 441.457031 C 538.640625 441.058594 537.019531 440.746094 535.378906 440.527344 C 533.691406 440.328125 532 440.21875 530.296875 440.203125 C 529.972656 440.199219 529.652344 440.1875 529.324219 440.1875 C 527.992188 440.203125 526.648438 440.253906 525.292969 440.386719 C 519.835938 440.9375 514.65625 442.445312 509.757812 444.914062 L 512.570312 440.832031 L 513.949219 438.828125 C 514.609375 437.875 515.140625 436.855469 515.550781 435.769531 C 515.960938 434.6875 516.234375 433.570312 516.375 432.417969 C 516.511719 431.269531 516.507812 430.117188 516.367188 428.96875 C 516.226562 427.820312 515.949219 426.703125 515.535156 425.621094 L 497.179688 377.484375 L 508.496094 379.285156 C 508.78125 379.332031 509.070312 379.34375 509.359375 379.328125 C 509.648438 379.3125 509.933594 379.261719 510.214844 379.183594 C 510.492188 379.105469 510.761719 379 511.019531 378.859375 C 511.273438 378.722656 511.511719 378.5625 511.734375 378.371094 C 511.953125 378.183594 512.152344 377.972656 512.328125 377.742188 C 512.503906 377.511719 512.652344 377.261719 512.773438 377 C 512.894531 376.734375 512.988281 376.460938 513.050781 376.179688 C 513.113281 375.894531 513.144531 375.605469 513.144531 375.316406 L 513.144531 354.1875 C 513.144531 353.894531 513.113281 353.609375 513.050781 353.324219 C 512.988281 353.042969 512.894531 352.765625 512.773438 352.503906 C 512.652344 352.238281 512.503906 351.992188 512.328125 351.761719 C 512.152344 351.527344 511.953125 351.320312 511.734375 351.128906 C 511.511719 350.941406 511.273438 350.777344 511.019531 350.640625 C 510.761719 350.503906 510.492188 350.398438 510.214844 350.316406 C 509.933594 350.238281 509.648438 350.191406 509.359375 350.175781 C 509.070312 350.15625 508.78125 350.171875 508.496094 350.21875 L 482.550781 354.34375 C 482 354.433594 481.476562 354.613281 480.988281 354.886719 C 480.496094 355.164062 480.070312 355.511719 479.707031 355.941406 C 479.34375 356.367188 479.0625 356.84375 478.871094 357.371094 C 478.675781 357.894531 478.578125 358.441406 478.578125 359 L 478.578125 362.898438 C 478.183594 362.8125 477.78125 362.761719 477.378906 362.742188 L 456.699219 362.476562 C 456 362.453125 455.339844 362.285156 454.714844 361.972656 C 454.089844 361.660156 453.554688 361.234375 453.113281 360.695312 L 434.394531 337.632812 C 424.039062 324.941406 406.367188 328.894531 403.039062 344.933594 L 393.308594 381.511719 C 393.152344 382.253906 393.03125 383.003906 392.945312 383.757812 C 392.859375 384.511719 392.808594 385.269531 392.792969 386.03125 C 392.777344 386.789062 392.796875 387.546875 392.851562 388.304688 C 392.90625 389.0625 392.996094 389.816406 393.121094 390.566406 C 393.246094 391.316406 393.40625 392.058594 393.597656 392.792969 C 393.792969 393.527344 394.019531 394.253906 394.28125 394.964844 C 394.542969 395.679688 394.835938 396.378906 395.160156 397.066406 C 395.484375 397.753906 395.84375 398.421875 396.230469 399.074219 C 396.617188 399.730469 397.035156 400.363281 397.480469 400.976562 C 397.929688 401.59375 398.402344 402.183594 398.90625 402.757812 C 399.40625 403.328125 399.933594 403.871094 400.484375 404.394531 C 401.039062 404.917969 401.613281 405.410156 402.210938 405.878906 C 402.808594 406.347656 403.429688 406.789062 404.066406 407.199219 C 404.707031 407.609375 405.363281 407.992188 406.039062 408.339844 C 406.710938 408.691406 407.402344 409.007812 408.105469 409.292969 C 408.808594 409.582031 409.523438 409.832031 410.25 410.054688 L 350.148438 410.054688 C 349.851562 410.054688 349.570312 410.109375 349.296875 410.222656 C 349.023438 410.335938 348.785156 410.496094 348.574219 410.707031 C 348.367188 410.914062 348.207031 411.15625 348.09375 411.425781 C 347.980469 411.699219 347.925781 411.984375 347.925781 412.277344 L 347.925781 420.640625 C 347.925781 420.9375 347.980469 421.21875 348.09375 421.492188 C 348.207031 421.765625 348.367188 422.003906 348.578125 422.214844 C 348.785156 422.421875 349.027344 422.582031 349.296875 422.695312 C 349.570312 422.808594 349.855469 422.863281 350.148438 422.863281 L 433.460938 422.863281 C 433.757812 422.863281 434.039062 422.808594 434.3125 422.695312 C 434.585938 422.582031 434.824219 422.421875 435.035156 422.214844 C 435.242188 422.003906 435.402344 421.765625 435.515625 421.492188 C 435.628906 421.21875 435.6875 420.9375 435.6875 420.640625 L 435.6875 414.023438 L 447.042969 415.65625 L 438.054688 455.644531 C 437.949219 456.238281 437.902344 456.835938 437.914062 457.441406 C 437.925781 458.042969 437.996094 458.636719 438.125 459.226562 C 438.253906 459.816406 438.4375 460.386719 438.675781 460.941406 C 438.914062 461.496094 439.207031 462.019531 439.546875 462.515625 C 439.886719 463.011719 440.273438 463.472656 440.707031 463.894531 C 441.136719 464.316406 441.605469 464.691406 442.109375 465.023438 C 442.613281 465.351562 443.144531 465.628906 443.703125 465.855469 C 444.261719 466.082031 444.839844 466.253906 445.429688 466.367188 C 446.023438 466.484375 446.621094 466.539062 447.222656 466.539062 C 447.824219 466.535156 448.421875 466.476562 449.011719 466.355469 C 449.605469 466.238281 450.179688 466.0625 450.734375 465.832031 C 451.292969 465.601562 451.824219 465.320312 452.324219 464.988281 C 452.828125 464.652344 453.292969 464.273438 453.722656 463.851562 C 454.148438 463.425781 454.53125 462.964844 454.871094 462.464844 C 455.210938 461.964844 455.496094 461.441406 455.730469 460.882812 C 455.96875 460.328125 456.148438 459.757812 456.269531 459.167969 L 467.378906 415.035156 C 467.492188 414.507812 467.578125 413.972656 467.636719 413.433594 C 467.699219 412.894531 467.730469 412.355469 467.738281 411.816406 C 467.746094 411.273438 467.726562 410.734375 467.679688 410.195312 C 467.632812 409.65625 467.558594 409.117188 467.457031 408.585938 C 467.359375 408.054688 467.230469 407.527344 467.078125 407.007812 C 466.929688 406.488281 466.75 405.976562 466.546875 405.476562 C 466.34375 404.972656 466.117188 404.484375 465.867188 404.003906 C 465.617188 403.523438 465.34375 403.058594 465.046875 402.605469 C 464.746094 402.152344 464.429688 401.714844 464.089844 401.292969 C 463.746094 400.871094 463.386719 400.46875 463.007812 400.085938 C 462.625 399.699219 462.226562 399.332031 461.8125 398.988281 C 461.394531 398.640625 460.960938 398.316406 460.511719 398.015625 C 460.0625 397.710938 459.601562 397.429688 459.125 397.171875 C 458.648438 396.917969 458.160156 396.683594 457.660156 396.472656 C 457.160156 396.265625 456.652344 396.082031 456.136719 395.921875 C 455.617188 395.765625 455.09375 395.632812 454.5625 395.523438 C 445.210938 393.644531 433.589844 391.378906 427.542969 390.207031 C 427.277344 390.152344 427.019531 390.074219 426.769531 389.972656 C 426.519531 389.867188 426.28125 389.738281 426.054688 389.585938 C 425.832031 389.4375 425.621094 389.261719 425.433594 389.070312 C 425.242188 388.875 425.074219 388.664062 424.925781 388.4375 C 424.777344 388.210938 424.652344 387.96875 424.554688 387.71875 C 424.453125 387.464844 424.382812 387.207031 424.335938 386.9375 C 424.289062 386.671875 424.265625 386.402344 424.273438 386.132812 C 424.28125 385.859375 424.316406 385.59375 424.375 385.328125 L 430.019531 360.246094 L 440.585938 372.761719 C 441.46875 373.851562 442.46875 374.824219 443.578125 375.679688 C 444.6875 376.535156 445.878906 377.253906 447.15625 377.832031 C 448.433594 378.414062 449.757812 378.839844 451.132812 379.109375 C 452.507812 379.382812 453.894531 379.492188 455.296875 379.441406 L 477.375 378.234375 C 478.519531 378.191406 479.597656 377.910156 480.613281 377.390625 L 488.527344 421.445312 C 489.089844 424.558594 489.152344 427.6875 488.722656 430.824219 C 488.296875 433.960938 487.390625 436.953125 486.015625 439.804688 L 474.957031 462.71875 C 474.347656 463.980469 473.574219 465.132812 472.640625 466.175781 C 471.707031 467.222656 470.644531 468.117188 469.457031 468.863281 C 468.269531 469.605469 467.003906 470.171875 465.65625 470.5625 C 464.308594 470.949219 462.9375 471.140625 461.535156 471.140625 L 440.566406 471.140625 C 440.039062 471.140625 439.511719 471.113281 438.984375 471.054688 C 438.460938 470.996094 437.9375 470.910156 437.421875 470.792969 C 436.90625 470.679688 436.398438 470.535156 435.898438 470.363281 C 435.398438 470.191406 434.910156 469.992188 434.433594 469.765625 C 433.953125 469.539062 433.488281 469.289062 433.039062 469.011719 C 432.589844 468.734375 432.15625 468.433594 431.738281 468.105469 C 431.320312 467.78125 430.925781 467.433594 430.546875 467.066406 C 430.167969 466.695312 429.808594 466.308594 429.472656 465.898438 C 429.136719 465.492188 428.828125 465.066406 428.539062 464.621094 C 428.25 464.179688 427.984375 463.722656 427.746094 463.25 C 427.511719 462.777344 427.296875 462.292969 427.113281 461.796875 C 426.929688 461.300781 426.773438 460.796875 426.644531 460.285156 C 426.515625 459.773438 426.414062 459.253906 426.34375 458.730469 C 426.273438 458.207031 426.230469 457.679688 426.214844 457.152344 C 426.203125 456.621094 426.21875 456.09375 426.261719 455.566406 C 426.308594 455.039062 426.382812 454.519531 426.484375 454 L 432.003906 426.101562 L 352.613281 426.101562 C 351.5 426.097656 350.46875 426.390625 349.523438 426.976562 C 348.777344 427.441406 347.777344 428.085938 346.582031 428.90625 C 345.921875 429.367188 345.1875 429.597656 344.382812 429.601562 L 310.445312 429.601562 C 310.175781 429.601562 309.910156 429.628906 309.648438 429.679688 C 309.382812 429.734375 309.128906 429.808594 308.878906 429.914062 C 308.628906 430.015625 308.394531 430.140625 308.171875 430.292969 C 307.945312 430.441406 307.738281 430.609375 307.550781 430.800781 C 307.359375 430.992188 307.191406 431.199219 307.039062 431.421875 C 306.890625 431.644531 306.765625 431.882812 306.660156 432.128906 C 306.558594 432.378906 306.480469 432.636719 306.429688 432.898438 C 306.375 433.164062 306.351562 433.429688 306.351562 433.699219 C 306.351562 433.964844 306.375 434.234375 306.429688 434.496094 C 306.480469 434.761719 306.558594 435.015625 306.660156 435.265625 C 306.765625 435.515625 306.890625 435.75 307.039062 435.972656 C 307.191406 436.195312 307.359375 436.402344 307.550781 436.59375 C 307.738281 436.785156 307.945312 436.953125 308.171875 437.105469 C 308.394531 437.253906 308.628906 437.378906 308.878906 437.480469 C 309.128906 437.585938 309.382812 437.664062 309.648438 437.714844 C 309.910156 437.769531 310.175781 437.792969 310.445312 437.792969 L 349.207031 437.792969 C 349.476562 437.792969 349.742188 437.820312 350.007812 437.871094 C 350.269531 437.925781 350.527344 438.003906 350.773438 438.105469 C 351.023438 438.207031 351.257812 438.335938 351.484375 438.484375 C 351.707031 438.632812 351.914062 438.804688 352.105469 438.992188 C 352.292969 439.183594 352.464844 439.390625 352.613281 439.613281 C 352.761719 439.839844 352.890625 440.074219 352.992188 440.324219 C 353.09375 440.570312 353.171875 440.828125 353.226562 441.089844 C 353.277344 441.355469 353.304688 441.621094 353.304688 441.890625 C 353.304688 442.160156 353.277344 442.425781 353.226562 442.6875 C 353.171875 442.953125 353.09375 443.210938 352.992188 443.457031 C 352.890625 443.707031 352.761719 443.941406 352.613281 444.164062 C 352.464844 444.390625 352.292969 444.597656 352.105469 444.785156 C 351.914062 444.976562 351.707031 445.148438 351.484375 445.296875 C 351.257812 445.445312 351.023438 445.570312 350.773438 445.675781 C 350.527344 445.777344 350.269531 445.855469 350.007812 445.90625 C 349.742188 445.960938 349.476562 445.988281 349.207031 445.988281 L 251.5 445.988281 C 251.230469 445.988281 250.964844 446.011719 250.703125 446.066406 C 250.4375 446.117188 250.183594 446.195312 249.933594 446.296875 C 249.683594 446.402344 249.449219 446.527344 249.226562 446.675781 C 249 446.828125 248.796875 446.996094 248.605469 447.1875 C 248.414062 447.375 248.246094 447.582031 248.09375 447.808594 C 247.945312 448.03125 247.820312 448.265625 247.71875 448.515625 C 247.613281 448.761719 247.535156 449.019531 247.484375 449.285156 C 247.429688 449.546875 247.40625 449.8125 247.40625 450.082031 C 247.40625 450.351562 247.429688 450.617188 247.484375 450.882812 C 247.535156 451.144531 247.613281 451.402344 247.71875 451.648438 C 247.820312 451.898438 247.945312 452.136719 248.09375 452.359375 C 248.246094 452.582031 248.414062 452.789062 248.605469 452.980469 C 248.796875 453.167969 249 453.339844 249.226562 453.488281 C 249.449219 453.636719 249.683594 453.765625 249.933594 453.867188 C 250.183594 453.96875 250.4375 454.046875 250.703125 454.101562 C 250.964844 454.152344 251.230469 454.179688 251.5 454.179688 L 329.746094 454.179688 C 330.015625 454.175781 330.285156 454.199219 330.550781 454.25 C 330.816406 454.300781 331.074219 454.378906 331.328125 454.480469 C 331.578125 454.582031 331.816406 454.707031 332.042969 454.855469 C 332.265625 455.003906 332.476562 455.171875 332.667969 455.363281 C 332.863281 455.554688 333.03125 455.761719 333.183594 455.988281 C 333.335938 456.210938 333.464844 456.449219 333.566406 456.699219 C 333.671875 456.949219 333.75 457.207031 333.804688 457.472656 C 333.855469 457.734375 333.882812 458.003906 333.882812 458.273438 C 333.882812 458.546875 333.855469 458.8125 333.804688 459.078125 C 333.75 459.34375 333.671875 459.601562 333.566406 459.851562 C 333.464844 460.101562 333.335938 460.339844 333.183594 460.5625 C 333.03125 460.789062 332.863281 460.996094 332.667969 461.1875 C 332.476562 461.375 332.265625 461.546875 332.042969 461.695312 C 331.816406 461.84375 331.578125 461.96875 331.328125 462.070312 C 331.074219 462.171875 330.816406 462.25 330.550781 462.300781 C 330.285156 462.351562 330.015625 462.375 329.746094 462.371094 L 279.570312 462.371094 C 279.300781 462.371094 279.035156 462.398438 278.773438 462.449219 C 278.507812 462.503906 278.253906 462.578125 278.003906 462.683594 C 277.753906 462.785156 277.519531 462.910156 277.296875 463.0625 C 277.074219 463.210938 276.867188 463.378906 276.675781 463.570312 C 276.484375 463.761719 276.316406 463.96875 276.164062 464.191406 C 276.015625 464.414062 275.890625 464.652344 275.789062 464.898438 C 275.683594 465.148438 275.605469 465.40625 275.554688 465.667969 C 275.5 465.933594 275.476562 466.199219 275.476562 466.46875 C 275.476562 466.734375 275.5 467.003906 275.554688 467.265625 C 275.605469 467.53125 275.683594 467.785156 275.789062 468.035156 C 275.890625 468.285156 276.015625 468.519531 276.164062 468.742188 C 276.316406 468.964844 276.484375 469.171875 276.675781 469.363281 C 276.867188 469.554688 277.074219 469.722656 277.296875 469.875 C 277.519531 470.023438 277.753906 470.148438 278.003906 470.25 C 278.253906 470.355469 278.507812 470.433594 278.773438 470.484375 C 279.035156 470.539062 279.300781 470.5625 279.570312 470.5625 L 313.441406 470.5625 C 310.972656 477.660156 309.738281 484.960938 309.742188 492.472656 L 323.070312 492.472656 C 323.070312 492.554688 323.054688 492.632812 323.054688 492.710938 C 323.054688 493.628906 323.117188 494.53125 323.191406 495.429688 C 323.34375 497.289062 323.660156 499.121094 324.136719 500.921875 C 324.613281 502.726562 325.246094 504.472656 326.03125 506.164062 C 326.816406 507.859375 327.742188 509.46875 328.8125 510.996094 C 329.878906 512.523438 331.074219 513.945312 332.394531 515.265625 C 332.820312 515.695312 333.261719 516.113281 333.710938 516.519531 C 334.160156 516.925781 334.625 517.320312 335.097656 517.699219 C 335.570312 518.082031 336.054688 518.445312 336.546875 518.796875 C 337.042969 519.148438 337.546875 519.488281 338.058594 519.8125 C 338.570312 520.132812 339.09375 520.441406 339.625 520.734375 C 340.15625 521.027344 340.695312 521.308594 341.242188 521.570312 C 341.789062 521.832031 342.34375 522.078125 342.90625 522.308594 C 343.464844 522.539062 344.035156 522.753906 344.605469 522.953125 C 345.179688 523.148438 345.757812 523.332031 346.34375 523.496094 C 346.925781 523.660156 347.515625 523.808594 348.109375 523.9375 C 348.699219 524.070312 349.296875 524.183594 349.894531 524.28125 C 350.492188 524.378906 351.09375 524.457031 351.699219 524.519531 C 352.300781 524.582031 352.90625 524.628906 353.511719 524.65625 C 354.117188 524.683594 354.726562 524.691406 355.332031 524.6875 C 355.9375 524.679688 356.542969 524.65625 357.148438 524.613281 C 357.753906 524.570312 358.359375 524.511719 358.960938 524.433594 C 359.5625 524.359375 360.160156 524.265625 360.757812 524.152344 C 361.355469 524.042969 361.949219 523.914062 362.535156 523.769531 C 363.125 523.625 363.710938 523.464844 364.289062 523.285156 C 364.871094 523.105469 365.445312 522.910156 366.011719 522.699219 C 366.582031 522.488281 367.144531 522.261719 367.699219 522.019531 C 368.253906 521.773438 368.804688 521.515625 369.34375 521.238281 C 369.886719 520.964844 370.417969 520.675781 370.941406 520.367188 C 371.464844 520.0625 371.980469 519.742188 372.488281 519.40625 C 372.992188 519.070312 373.488281 518.722656 373.972656 518.359375 C 374.460938 517.996094 374.933594 517.617188 375.398438 517.226562 C 375.863281 516.835938 376.316406 516.433594 376.753906 516.015625 C 377.195312 515.597656 377.625 515.167969 378.042969 514.726562 C 378.457031 514.285156 378.859375 513.832031 379.25 513.371094 C 379.640625 512.90625 380.019531 512.429688 380.382812 511.941406 C 380.742188 511.457031 381.09375 510.960938 381.425781 510.453125 C 381.761719 509.949219 382.082031 509.433594 382.386719 508.910156 C 382.753906 508.289062 383.101562 507.65625 383.425781 507.007812 C 385.265625 503.359375 386.359375 499.5 386.703125 495.429688 C 386.777344 494.53125 386.839844 493.628906 386.839844 492.710938 C 386.839844 492.632812 386.824219 492.554688 386.824219 492.472656 L 464.660156 492.472656 C 466.554688 492.453125 468.421875 492.210938 470.257812 491.746094 C 472.09375 491.28125 473.851562 490.609375 475.527344 489.726562 C 477.207031 488.847656 478.757812 487.78125 480.179688 486.53125 C 481.605469 485.285156 482.863281 483.886719 483.957031 482.339844 L 485.289062 480.40625 C 485 483.328125 485 486.253906 485.285156 489.175781 C 485.414062 490.453125 485.625 491.703125 485.851562 492.941406 C 486.554688 496.738281 487.730469 500.378906 489.378906 503.871094 C 489.929688 503.632812 490.457031 503.351562 490.964844 503.027344 C 491.765625 502.53125 492.523438 501.976562 493.242188 501.363281 C 494.210938 500.535156 495.097656 499.621094 495.894531 498.625 C 496.359375 498.039062 496.796875 497.433594 497.199219 496.800781 C 497.726562 495.972656 498.191406 495.140625 498.632812 494.3125 C 503.242188 485.625 503.746094 476.796875 513.453125 467.210938 C 514.699219 465.976562 516.039062 464.855469 517.472656 463.847656 Z M 372.539062 492.710938 C 372.53125 493.285156 372.492188 493.851562 372.429688 494.421875 C 372.367188 494.988281 372.277344 495.550781 372.15625 496.109375 C 372.039062 496.667969 371.894531 497.21875 371.722656 497.761719 C 371.550781 498.308594 371.351562 498.84375 371.128906 499.367188 C 370.902344 499.894531 370.652344 500.40625 370.378906 500.90625 C 370.105469 501.40625 369.808594 501.894531 369.488281 502.367188 C 369.164062 502.835938 368.820312 503.292969 368.457031 503.730469 C 368.089844 504.167969 367.703125 504.589844 367.296875 504.988281 C 366.890625 505.390625 366.464844 505.769531 366.023438 506.128906 C 365.578125 506.488281 365.117188 506.828125 364.640625 507.140625 C 364.164062 507.457031 363.675781 507.746094 363.171875 508.015625 C 362.664062 508.28125 362.148438 508.523438 361.621094 508.738281 C 361.09375 508.957031 360.554688 509.144531 360.007812 509.308594 C 359.460938 509.476562 358.910156 509.613281 358.347656 509.722656 C 357.789062 509.832031 357.222656 509.914062 356.65625 509.972656 C 356.085938 510.027344 355.519531 510.054688 354.945312 510.054688 C 354.375 510.054688 353.804688 510.027344 353.238281 509.972656 C 352.667969 509.914062 352.105469 509.832031 351.546875 509.722656 C 350.984375 509.613281 350.433594 509.476562 349.886719 509.308594 C 349.339844 509.144531 348.800781 508.957031 348.273438 508.738281 C 347.746094 508.523438 347.226562 508.28125 346.722656 508.015625 C 346.21875 507.746094 345.726562 507.457031 345.25 507.140625 C 344.773438 506.828125 344.316406 506.488281 343.871094 506.128906 C 343.429688 505.769531 343.003906 505.390625 342.597656 504.988281 C 342.191406 504.589844 341.804688 504.167969 341.4375 503.730469 C 341.070312 503.292969 340.726562 502.835938 340.40625 502.367188 C 340.085938 501.894531 339.789062 501.40625 339.515625 500.90625 C 339.238281 500.40625 338.992188 499.894531 338.765625 499.367188 C 338.542969 498.84375 338.34375 498.308594 338.171875 497.761719 C 338 497.21875 337.855469 496.667969 337.738281 496.109375 C 337.617188 495.550781 337.527344 494.988281 337.464844 494.421875 C 337.398438 493.851562 337.363281 493.285156 337.355469 492.710938 C 337.355469 492.632812 337.378906 492.558594 337.378906 492.472656 L 372.515625 492.472656 C 372.515625 492.558594 372.539062 492.632812 372.539062 492.710938 Z M 414.261719 318.738281 C 413.824219 315.453125 412.953125 308.539062 413.039062 306.734375 C 413.621094 294.132812 422.421875 284.304688 436.914062 284.976562 C 438.125 285.035156 439.324219 285.1875 440.511719 285.433594 C 441.699219 285.679688 442.859375 286.019531 443.992188 286.453125 C 445.125 286.882812 446.214844 287.402344 447.265625 288.007812 C 448.316406 288.613281 449.3125 289.300781 450.253906 290.066406 C 451.195312 290.828125 452.070312 291.664062 452.878906 292.566406 C 453.6875 293.46875 454.417969 294.433594 455.074219 295.453125 C 455.730469 296.472656 456.300781 297.539062 456.785156 298.648438 C 457.273438 299.761719 457.667969 300.902344 457.972656 302.078125 L 435.78125 301.046875 C 435.476562 301.03125 435.179688 301.074219 434.894531 301.179688 C 434.605469 301.28125 434.351562 301.4375 434.125 301.644531 C 433.898438 301.847656 433.722656 302.089844 433.59375 302.367188 C 433.464844 302.640625 433.390625 302.933594 433.378906 303.238281 L 433.027344 310.746094 C 433.011719 311.097656 433.050781 311.441406 433.148438 311.777344 C 433.246094 312.113281 433.390625 312.421875 433.589844 312.710938 C 433.789062 313 434.027344 313.246094 434.308594 313.457031 C 434.589844 313.664062 434.894531 313.824219 435.226562 313.929688 L 457.050781 321.03125 C 455.675781 325.09375 453.691406 328.835938 451.097656 332.25 C 450.902344 332.507812 450.671875 332.726562 450.402344 332.90625 C 450.136719 333.089844 449.847656 333.222656 449.539062 333.3125 C 449.226562 333.402344 448.910156 333.4375 448.585938 333.421875 C 448.265625 333.40625 447.953125 333.34375 447.652344 333.226562 L 416.152344 321.132812 C 415.640625 320.9375 415.21875 320.625 414.878906 320.195312 C 414.539062 319.769531 414.335938 319.28125 414.261719 318.738281 Z M 287.484375 366.273438 L 247.300781 366.273438 C 247.015625 366.273438 246.730469 366.242188 246.449219 366.183594 C 246.167969 366.125 245.898438 366.035156 245.636719 365.917969 C 245.375 365.800781 245.128906 365.660156 244.894531 365.492188 C 244.664062 365.324219 244.449219 365.132812 244.257812 364.917969 C 244.066406 364.707031 243.898438 364.476562 243.753906 364.226562 C 243.613281 363.980469 243.496094 363.71875 243.40625 363.445312 C 243.316406 363.171875 243.257812 362.894531 243.226562 362.609375 C 243.195312 362.324219 243.195312 362.039062 243.226562 361.753906 C 243.441406 359.621094 245.390625 358.078125 247.535156 358.078125 L 297.988281 358.078125 C 298.273438 358.078125 298.558594 358.050781 298.839844 357.992188 C 299.121094 357.929688 299.390625 357.84375 299.652344 357.726562 C 299.914062 357.609375 300.164062 357.46875 300.394531 357.296875 C 300.625 357.128906 300.839844 356.9375 301.03125 356.726562 C 301.222656 356.511719 301.390625 356.28125 301.535156 356.035156 C 301.675781 355.785156 301.792969 355.527344 301.882812 355.253906 C 301.972656 354.980469 302.03125 354.703125 302.0625 354.417969 C 302.09375 354.132812 302.09375 353.847656 302.0625 353.5625 C 301.851562 351.429688 299.898438 349.886719 297.753906 349.886719 L 257.332031 349.886719 C 257.0625 349.886719 256.796875 349.859375 256.535156 349.808594 C 256.269531 349.757812 256.015625 349.679688 255.765625 349.574219 C 255.515625 349.472656 255.28125 349.347656 255.058594 349.195312 C 254.832031 349.046875 254.625 348.878906 254.4375 348.6875 C 254.246094 348.496094 254.078125 348.289062 253.925781 348.066406 C 253.777344 347.84375 253.652344 347.605469 253.546875 347.359375 C 253.445312 347.109375 253.367188 346.855469 253.316406 346.589844 C 253.261719 346.328125 253.238281 346.058594 253.238281 345.792969 C 253.238281 345.523438 253.261719 345.257812 253.316406 344.992188 C 253.367188 344.726562 253.445312 344.472656 253.546875 344.222656 C 253.652344 343.976562 253.777344 343.738281 253.925781 343.515625 C 254.078125 343.292969 254.246094 343.085938 254.4375 342.894531 C 254.625 342.703125 254.832031 342.535156 255.058594 342.386719 C 255.28125 342.234375 255.515625 342.109375 255.765625 342.007812 C 256.015625 341.902344 256.269531 341.828125 256.535156 341.773438 C 256.796875 341.722656 257.0625 341.695312 257.332031 341.695312 L 297.988281 341.695312 C 298.273438 341.695312 298.558594 341.664062 298.839844 341.605469 C 299.121094 341.546875 299.390625 341.457031 299.652344 341.339844 C 299.914062 341.226562 300.164062 341.082031 300.394531 340.914062 C 300.625 340.746094 300.839844 340.554688 301.03125 340.339844 C 301.222656 340.128906 301.390625 339.898438 301.535156 339.648438 C 301.675781 339.402344 301.792969 339.140625 301.882812 338.867188 C 301.972656 338.597656 302.03125 338.316406 302.0625 338.03125 C 302.09375 337.746094 302.09375 337.460938 302.0625 337.175781 C 301.851562 335.042969 299.898438 333.503906 297.753906 333.503906 L 269.511719 333.503906 C 269.222656 333.503906 268.9375 333.472656 268.660156 333.414062 C 268.378906 333.351562 268.105469 333.265625 267.84375 333.148438 C 267.582031 333.03125 267.335938 332.890625 267.105469 332.722656 C 266.871094 332.554688 266.660156 332.363281 266.46875 332.148438 C 266.277344 331.9375 266.109375 331.707031 265.964844 331.457031 C 265.820312 331.210938 265.703125 330.949219 265.613281 330.675781 C 265.527344 330.402344 265.464844 330.125 265.4375 329.839844 C 265.40625 329.554688 265.40625 329.269531 265.433594 328.984375 C 265.648438 326.851562 267.601562 325.308594 269.742188 325.308594 L 287.484375 325.308594 L 287.484375 320.605469 C 287.484375 320.339844 287.511719 320.074219 287.5625 319.8125 C 287.613281 319.550781 287.691406 319.296875 287.792969 319.050781 C 287.894531 318.804688 288.019531 318.570312 288.167969 318.351562 C 288.316406 318.128906 288.484375 317.925781 288.671875 317.734375 C 288.863281 317.546875 289.066406 317.378906 289.289062 317.230469 C 289.511719 317.082031 289.742188 316.957031 289.988281 316.855469 C 290.234375 316.753906 290.488281 316.675781 290.75 316.625 C 291.011719 316.574219 291.277344 316.546875 291.542969 316.546875 L 382.183594 316.546875 C 382.449219 316.546875 382.710938 316.574219 382.972656 316.625 C 383.234375 316.675781 383.488281 316.753906 383.734375 316.855469 C 383.980469 316.957031 384.214844 317.082031 384.4375 317.230469 C 384.65625 317.378906 384.863281 317.546875 385.050781 317.734375 C 385.238281 317.921875 385.40625 318.128906 385.554688 318.351562 C 385.703125 318.570312 385.828125 318.804688 385.929688 319.050781 C 386.03125 319.296875 386.109375 319.550781 386.160156 319.8125 C 386.214844 320.074219 386.238281 320.335938 386.238281 320.605469 L 386.238281 399.757812 C 386.238281 400.132812 386.203125 400.5 386.128906 400.867188 C 386.058594 401.230469 385.949219 401.585938 385.808594 401.929688 C 385.664062 402.277344 385.488281 402.601562 385.28125 402.914062 C 385.074219 403.222656 384.839844 403.511719 384.578125 403.773438 C 384.3125 404.039062 384.027344 404.273438 383.714844 404.480469 C 383.40625 404.6875 383.078125 404.863281 382.734375 405.003906 C 382.390625 405.148438 382.035156 405.253906 381.667969 405.328125 C 381.304688 405.402344 380.933594 405.4375 380.5625 405.4375 L 291.542969 405.4375 C 291.277344 405.4375 291.011719 405.410156 290.75 405.359375 C 290.488281 405.308594 290.234375 405.230469 289.988281 405.128906 C 289.742188 405.027344 289.511719 404.902344 289.289062 404.753906 C 289.066406 404.605469 288.863281 404.4375 288.671875 404.25 C 288.484375 404.058594 288.316406 403.855469 288.167969 403.632812 C 288.019531 403.414062 287.894531 403.179688 287.792969 402.933594 C 287.691406 402.6875 287.613281 402.433594 287.5625 402.171875 C 287.511719 401.910156 287.484375 401.644531 287.484375 401.378906 L 287.484375 374.464844 L 297.988281 374.464844 C 298.273438 374.464844 298.558594 374.433594 298.839844 374.375 C 299.121094 374.316406 299.390625 374.226562 299.652344 374.109375 C 299.914062 373.996094 300.160156 373.851562 300.394531 373.683594 C 300.625 373.515625 300.839844 373.324219 301.03125 373.113281 C 301.222656 372.898438 301.390625 372.667969 301.535156 372.417969 C 301.675781 372.171875 301.792969 371.910156 301.882812 371.636719 C 301.972656 371.367188 302.03125 371.085938 302.0625 370.800781 C 302.09375 370.515625 302.09375 370.230469 302.0625 369.945312 C 301.851562 367.8125 299.898438 366.273438 297.753906 366.273438 Z M 287.484375 366.273438 " fill-opacity="1" fill-rule="nonzero"/></g></svg>